<svg class="logo" version="1.1" xmlns="http://www.w3.org/2000/svg" xmlns:xlink="http://www.w3.org/1999/xlink" x="0px" y="0px" viewBox="0 0 128 128" enable-background="new 0 0 128 128" xml:space="preserve">
	<g>
		<g class="logo__outer">
			<polygon class="logo__hex logo__hex--fill" fill="none" stroke-miterlimit="10" points="14,35.5 64,6.7 114,35.5 114,93 64,121.8 14,93"></polygon>
			<path class="logo__bridge" fill="none" stroke-miterlimit="10" d="M83,111V86.3 c8,4.2,13.7,8.4,20.6,12.5"></path>
		</g>

		<g class="logo__inner">
			<path class="logo__g" fill="none" stroke-miterlimit="10" d="M104.25,43.5L64.8,20.3L26,43.5 v42.9l39,22.4V78.5c-4-2.6-9-5.2-15-7.8c0-5.2,0-10.4,0-15.6c19,10.2,37,20.4,54,30.6c0-14.5,0-43.7,0-42.15"></path>
			<line class="logo__sep" fill="none" stroke-miterlimit="10" x1="74" y1="116" x2="74" y2="68"></line>
		</g>

		<polygon class="logo__hex logo__hex--line" fill="none" stroke-miterlimit="10" points="14,35.5 64,6.7 114,35.5 114,93 64,121.8 14,93"></polygon>
	</g>
</svg>
